<svg width="314" height="92" viewBox="0 0 314 92" fill="none" xmlns="http://www.w3.org/2000/svg">
<g clip-path="url(#clip0_5872_2217)">
<path d="M157.989 44.2036H156.012V39.9146C156.012 39.37 156.454 38.9265 156.997 38.9265H157.983V34.9688H156.006C154.549 34.9688 153.373 36.1477 153.373 37.6073V44.2036H149.424V0H138.232V44.2036H134.283V39.9146C134.283 39.37 134.725 38.9265 135.269 38.9265H136.255V34.9688H134.277C132.821 34.9688 131.644 36.1477 131.644 37.6073V44.2036H129.667V46.1853H157.972V44.2036H157.989Z" fill="#0E1ADF"/>
<path d="M175.763 40.2402H169.181V42.2219H175.763V40.2402Z" fill="#0E1ADF"/>
<path d="M210.65 40.2402H182.345V42.2219H210.65V40.2402Z" fill="#0E1ADF"/>
<path d="M13.1639 61.354H0V63.3357H13.1639V61.354Z" fill="#0E1ADF"/>
<path d="M24.3561 59.3723H13.1641V61.354H24.3561V59.3723Z" fill="#0E1ADF"/>
<path d="M24.3561 63.3357H13.1641V77.1907H24.3561V63.3357Z" fill="#0E1ADF"/>
<path d="M37.5251 59.3723H26.333V61.354H37.5251V59.3723Z" fill="#0E1ADF"/>
<path d="M37.5251 63.3357H26.333V77.1907H37.5251V63.3357Z" fill="#0E1ADF"/>
<path d="M50.6891 59.3723H39.4971V61.354H50.6891V59.3723Z" fill="#0E1ADF"/>
<path d="M50.6891 63.3357H39.4971V77.1907H50.6891V63.3357Z" fill="#0E1ADF"/>
<path d="M281.091 59.3723H269.898V61.354H281.091V59.3723Z" fill="#0E1ADF"/>
<path d="M267.921 59.3723H256.729V61.354H267.921V59.3723Z" fill="#0E1ADF"/>
<path d="M267.921 63.3357H256.729V77.1907H267.921V63.3357Z" fill="#0E1ADF"/>
<path d="M180.367 35.9568C180.367 35.4123 180.81 34.9688 181.353 34.9688H182.339V31.011H180.367C178.911 31.011 177.734 32.1899 177.734 33.6495V44.2036H180.367V35.9568Z" fill="#0E1ADF"/>
<path d="M248.175 73.2273H245.873C243.515 73.2273 241.593 71.3018 241.593 68.9383V63.3301H243.565V68.9383C243.565 70.2127 244.601 71.2456 245.867 71.2456H248.17V73.2217L248.175 73.2273ZM235.011 73.2273H232.709C230.351 73.2273 228.429 71.3018 228.429 68.9383V63.3301H230.407V68.9383C230.407 70.2127 231.443 71.2456 232.709 71.2456H235.011V73.2217V73.2273ZM221.848 73.2273H219.545C217.187 73.2273 215.266 71.3018 215.266 68.9383V63.3301H217.243V68.9383C217.243 70.2127 218.279 71.2456 219.545 71.2456H221.848V73.2217V73.2273ZM208.684 73.2273H206.381C204.023 73.2273 202.102 71.3018 202.102 68.9383V63.3301H204.079V68.9383C204.079 70.2127 205.115 71.2456 206.381 71.2456H208.684V73.2217V73.2273ZM195.52 73.2273H193.218C190.859 73.2273 188.938 71.3018 188.938 68.9383V63.3301H190.91V68.9383C190.91 70.2127 191.946 71.2456 193.212 71.2456H195.514V73.2217L195.52 73.2273ZM182.356 73.2273H180.054C177.695 73.2273 175.774 71.3018 175.774 68.9383V63.3301H177.746V68.9383C177.746 70.2127 178.782 71.2456 180.048 71.2456H182.35V73.2217L182.356 73.2273ZM169.192 73.2273H166.89C164.532 73.2273 162.61 71.3018 162.61 68.9383V63.3301H164.588V68.9383C164.588 70.2127 165.624 71.2456 166.89 71.2456H169.192V73.2217V73.2273ZM156.028 73.2273H153.726C151.368 73.2273 149.446 71.3018 149.446 68.9383V63.3301H151.424V68.9383C151.424 70.2127 152.46 71.2456 153.726 71.2456H156.028V73.2217V73.2273ZM142.864 73.2273H140.562C138.204 73.2273 136.282 71.3018 136.282 68.9383V63.3301H138.26V68.9383C138.26 70.2127 139.296 71.2456 140.562 71.2456H142.864V73.2217V73.2273ZM129.701 73.2273H127.398C125.04 73.2273 123.119 71.3018 123.119 68.9383V63.3301H125.09V68.9383C125.09 70.2127 126.127 71.2456 127.393 71.2456H129.695V73.2217L129.701 73.2273ZM116.537 73.2273H114.234C111.876 73.2273 109.955 71.3018 109.955 68.9383V63.3301H111.926V68.9383C111.926 70.2127 112.963 71.2456 114.229 71.2456H116.531V73.2217L116.537 73.2273ZM103.373 73.2273H101.071C98.7122 73.2273 96.7909 71.3018 96.7909 68.9383V63.3301H98.7682V68.9383C98.7682 70.2127 99.8045 71.2456 101.071 71.2456H103.373V73.2217V73.2273ZM90.2089 73.2273H87.9067C85.5484 73.2273 83.627 71.3018 83.627 68.9383V63.3301H85.6044V68.9383C85.6044 70.2127 86.6407 71.2456 87.9067 71.2456H90.2089V73.2217V73.2273ZM77.0451 73.2273H74.7428C72.3845 73.2273 70.4631 71.3018 70.4631 68.9383V63.3301H72.4405V68.9383C72.4405 70.2127 73.4768 71.2456 74.7428 71.2456H77.0451V73.2217V73.2273ZM63.8812 73.2273H61.5789C59.2207 73.2273 57.2993 71.3018 57.2993 68.9383V63.3301H59.2767V68.9383C59.2767 70.2127 60.313 71.2456 61.5789 71.2456H63.8812V73.2217V73.2273ZM52.6891 77.1851H254.78V59.3723H52.6611V77.1851H52.6891Z" fill="#0E1ADF"/>
<path d="M52.6606 44.2035H50.6833V36.9448H52.6606V44.2035ZM57.2708 36.9448H59.2482V44.2035H57.2708V36.9448ZM63.8527 36.9448H65.8301V44.2035H63.8527V36.9448ZM70.4346 36.9448H72.4064V44.2035H70.4346V36.9448ZM77.0166 36.9448H78.994V44.2035H77.0166V36.9448ZM83.5985 36.9448H85.5759V44.2035H83.5985V36.9448ZM90.1804 36.9448H92.1578V44.2035H90.1804V36.9448ZM96.7624 36.9448H98.7341V44.2035H96.7624V36.9448ZM103.344 36.9448H105.316V44.2035H103.344V36.9448ZM120.457 32.987V31.0053H50.6777V17.8127H48.7059V20.1593C44.5159 22.2084 37.5866 19.6316 37.5866 19.6316V23.6961C33.4302 25.7451 25.319 24.6224 25.319 24.6224V26.8062C25.1622 27.1654 23.9242 28.3275 20.2607 27.9963C22.4566 30.2306 26.1929 28.7205 26.7194 28.4566V27.4686C26.7194 27.4686 35.7213 29.5176 39.8777 27.4686V25.7507C39.8777 25.7507 44.5159 28.3275 48.7059 26.2785V46.1908H116.508V42.2331H109.926V40.2514H116.508V36.9504H120.457V34.9687H50.6777V32.987H120.457Z" fill="#0E1ADF"/>
<path d="M307.418 61.3539H296.226V57.3961H307.418V61.3539ZM307.418 77.185H296.226V63.3299H307.418V77.185ZM210.65 48.1557H169.175V46.174H210.65V48.1557ZM309.39 77.185V48.8181H307.412V55.4144H296.22V48.8181H294.243V55.4144H283.051V48.8181H281.074V55.4144H269.881V48.8181H267.91V55.4144H254.746V48.1557H241.582V46.1796H254.746V48.1557H261.328V46.174H254.746V42.2162H248.164V40.2345H254.746V36.9336H258.695V34.9519H243.554V32.9702H258.695V30.9885H243.554V17.7959H241.582V20.1425C237.392 22.1916 230.463 19.6148 230.463 19.6148V23.6792C226.306 25.7283 218.195 24.6055 218.195 24.6055V26.7893C218.038 27.1486 216.8 28.3107 213.137 27.9794C215.333 30.2138 219.069 28.7036 219.596 28.4398V27.4461C219.596 27.4461 228.597 29.4952 232.754 27.4461V25.7283C232.754 25.7283 237.392 28.3051 241.582 26.256V46.1628H210.644V44.1867H169.17V46.1628H157.977V48.1444H129.672V46.1628H116.509V48.1444H48.7063V46.1628H9.2147V48.1444H24.3559V50.1261H13.1639V55.4032H0V57.3792H294.254V61.337H281.09V63.3187H269.898V77.1737H281.09V63.3187H294.254V77.1737H281.09V79.1554H13.1639V77.1737H0V79.1554H3.29376V87.4134C6.41948 88.9516 9.66843 90.2204 13.0798 91.113C14.0881 91.3768 15.1132 91.5396 16.1439 91.6856C20.1547 92.3761 25.986 91.6856 26.3613 91.6294C28.3723 91.3319 30.3217 90.8042 32.2374 90.1305C34.6405 89.2828 37.0549 88.4857 39.5924 88.1657C40.3486 88.0702 41.1104 87.9636 41.8779 87.9355C44.8299 87.666 47.5075 87.7952 50.3083 88.233C52.0953 88.5137 53.8486 88.9516 55.5515 89.5579C58.2907 90.5291 61.0411 91.4273 63.9483 91.7361C68.3232 92.247 74.1153 91.5845 74.8155 91.461C76.8433 91.0961 78.7983 90.473 80.7253 89.7712C84.0974 88.5362 87.5705 87.913 91.1611 87.8794C94.4549 87.8457 97.7262 87.9916 100.914 88.9179C102.437 89.3614 103.933 89.8948 105.44 90.3944C107.339 91.0288 109.277 91.4947 111.271 91.708C115.623 92.1459 119.281 91.8764 122.138 91.4722C124.138 91.113 126.082 90.546 127.969 89.8218C132.641 88.0309 137.492 87.666 142.422 87.9299C145.251 88.0815 147.995 88.6822 150.667 89.6309C152.757 90.3719 154.852 91.0849 157.048 91.4666C161.243 92.1403 165.792 92.1122 169.612 91.4666C171.696 91.1017 173.707 90.473 175.679 89.7319C180.255 88.0029 185 87.6885 189.817 87.9299C193.066 88.0927 196.186 88.8955 199.234 90.0126C201.446 90.8266 203.715 91.433 206.068 91.7024C210.347 92.1684 214.089 91.8484 216.128 91.6238C218.111 91.3263 220.038 90.8154 221.926 90.153C224.351 89.2997 226.788 88.48 229.359 88.1601C230.121 88.0646 230.877 87.958 231.645 87.9299C234.462 87.8401 237.274 87.7896 240.075 88.2274C241.862 88.5081 243.615 88.946 245.318 89.5523C248.057 90.5235 250.808 91.4217 253.715 91.7305C256.241 91.9831 260.572 92.1122 263.445 91.635C265.876 91.3207 268.201 90.6021 270.486 89.7656C273.859 88.5362 277.332 87.9074 280.922 87.8738C284.216 87.8401 287.487 87.986 290.675 88.9123C292.198 89.3558 293.694 89.8891 295.195 90.3888C297.094 91.0231 299.032 91.4891 301.027 91.7024C301.665 91.7642 302.421 91.8091 303.245 91.8428L309.922 79.1442H314.028V77.1625H309.418L309.39 77.185Z" fill="#0E1ADF"/>
</g>
<defs>
<clipPath id="clip0_5872_2217">
<rect width="314" height="92" fill="white"/>
</clipPath>
</defs>
</svg>
