<svg width="512" height="512" viewBox="0 0 192 192" fill="none" xmlns="http://www.w3.org/2000/svg">
<g clip-path="url(#clip0_13405_225452)">
<rect width="192" height="192" fill="#003463"/>
<path d="M35.5355 84.7516H41.1622C45.3546 84.7516 47.4509 86.6974 47.4509 90.0173C47.4509 91.1005 47.2102 92.0433 46.7488 92.8156C50.1389 92.5046 53.7496 92.2138 57.5509 91.943C57.6311 91.3211 57.6712 90.6792 57.6712 90.0173C57.6712 81.843 51.533 76.778 41.774 76.778H25.4155V95.3029C28.3642 94.8817 31.7543 94.4304 35.5355 93.979V84.7516Z" fill="white"/>
<path d="M25.3854 98.1915C24.0715 98.4222 18.2542 99.706 25.4155 103.397V112.554H35.5355V103.918H41.774C49.4568 103.918 54.893 100.338 56.8588 94.8516C43.7499 95.7843 33.0682 97.0782 25.4155 98.1915H25.3854Z" fill="white"/>
<path d="M119.886 103.708C118.101 104.53 116.305 104.881 114.42 104.881C108.392 104.881 104.3 100.689 104.3 94.661C104.3 94.33 104.31 94.0091 104.34 93.6982C98.4523 93.5778 92.8356 93.5578 87.4998 93.6079C87.5299 93.9489 87.5399 94.3 87.5399 94.661C87.5399 100.849 83.4477 103.979 77.3697 103.979H70.9807V94.0392C67.4101 94.1896 64.0401 94.3702 60.8607 94.5708V112.544H77.7809C86.2862 112.544 92.8757 108.994 95.9148 102.926C98.9738 109.244 105.593 113.256 113.808 113.256C119.023 113.256 124.69 111.672 128.832 108.703V94.7413C125.803 94.5407 122.825 94.3702 119.886 94.2297V103.698V103.708Z" fill="white"/>
<path d="M70.9707 84.8519H77.3597C82.0235 84.8519 85.5139 86.9882 86.8879 90.7695C92.5648 90.6993 98.5827 90.7193 104.881 90.8597C106.225 86.8779 109.746 84.4407 114.51 84.4407C117.93 84.4407 120.748 85.7145 123.196 88.4225L129.635 82.5952C126.104 78.3526 120.688 76.0558 113.998 76.0558C105.634 76.0558 98.9638 80.0677 95.9047 86.3865C92.8657 80.3184 86.2761 76.7679 77.7709 76.7679H60.8507V91.7123C64.0301 91.5117 67.4101 91.3311 70.9707 91.1907V84.8519Z" fill="white"/>
<path d="M151.089 86.6874L154.057 94.1094C157.457 94.4905 160.858 94.9619 164.338 95.4233L156.124 76.778H146.204L139.243 92.6551C142.262 92.9058 145.251 93.1967 148.35 93.5176L151.099 86.6874H151.089Z" fill="white"/>
<path d="M130.477 112.554H140.758L144.198 103.959H157.959L161.399 112.554H171.88L167.798 103.297C172.913 99.9467 167.728 98.7532 165.963 98.5024H165.913C156.264 97.1785 146.996 96.1655 138.01 95.4233L130.477 112.564V112.554Z" fill="white"/>
<path d="M167.327 79.2754C167.327 80.6996 166.223 81.8129 164.799 81.8129C163.375 81.8129 162.292 80.6996 162.292 79.2954C162.292 77.8913 163.385 76.778 164.819 76.778C166.254 76.778 167.327 77.8612 167.327 79.2854V79.2754ZM166.916 79.2754C166.916 78.0718 166.033 77.1591 164.819 77.1591C163.606 77.1591 162.703 78.0919 162.703 79.2854C162.703 80.4789 163.606 81.4117 164.809 81.4117C166.013 81.4117 166.926 80.4689 166.926 79.2754H166.916ZM165.511 79.7367L166.143 80.6996H165.531L164.98 79.8471H164.9H164.348V80.6996H163.736V77.8913H164.91C165.652 77.8913 166.093 78.2724 166.093 78.8641C166.093 79.2854 165.892 79.5863 165.531 79.7367H165.511ZM164.859 79.3656C165.261 79.3656 165.491 79.1851 165.491 78.8641C165.491 78.5432 165.261 78.3727 164.859 78.3727H164.328V79.3656H164.859Z" fill="white"/>
<path d="M96.005 0C62.0342 0 32.1254 17.7427 15.0547 44.4419H15.0045V44.5322C5.50635 59.4164 0 77.0788 0 96.005C0 148.942 43.0679 192.01 96.005 192.01C148.942 192.01 192.01 148.942 192.01 96.005C192 43.0679 148.942 0 96.005 0ZM167.226 44.4419H138.752C137.97 42.9977 137.167 41.5634 136.325 40.1592C128.652 27.4013 118.512 16.6895 106.657 8.68579C131.51 11.7047 153.195 25.1146 167.226 44.4419ZM99.6458 13.7107C111.812 21.3434 121.962 31.9549 129.434 44.4419H99.6458V13.7107ZM83.6684 8.89641C71.9536 16.8701 61.9339 27.5016 54.3313 40.1492C53.4888 41.5534 52.6864 42.9876 51.9041 44.4319H24.7735C38.4943 25.5458 59.5167 12.3065 83.6684 8.90644V8.89641ZM91.612 13.3296V44.4419H61.2218C68.8143 31.7543 79.175 20.9923 91.612 13.3296ZM23.1989 145.331H50.5701C51.7336 147.628 52.9672 149.895 54.2912 152.102C61.7734 164.569 71.6026 175.08 83.0967 183.023C58.2429 179.352 36.7491 165.261 23.1989 145.331ZM91.612 178.991C78.3526 170.827 67.4603 159.132 59.7574 145.331H91.612V178.991ZM107.208 183.264C118.853 175.29 128.802 164.689 136.365 152.102C137.689 149.895 138.932 147.628 140.086 145.331H168.801C154.95 165.712 132.774 179.994 107.208 183.264ZM99.6458 178.61V145.341H130.899C123.316 158.932 112.634 170.466 99.6458 178.61ZM143.717 137.298C145.492 132.905 146.976 128.381 148.16 123.777H139.785C138.471 128.421 136.846 132.945 134.911 137.298H99.6458V123.777H91.612V137.298H55.7455C53.8098 132.945 52.1849 128.421 50.871 123.777H42.4962C43.6897 128.391 45.1641 132.905 46.9394 137.298H18.3545C11.775 124.981 8.04388 110.919 8.04388 96.005C8.04388 80.178 12.2464 65.3239 19.5882 52.4758H48.0025C46.0868 56.8889 44.472 61.4324 43.1581 66.0661H51.6032C53.0575 61.3822 54.8328 56.8387 56.919 52.4758H91.622V66.0661H99.6559V52.4758H133.747C135.833 56.8387 137.609 61.3923 139.063 66.0661H147.508C146.194 61.4224 144.579 56.8789 142.664 52.4758H172.432C179.774 65.3139 183.976 80.178 183.976 96.005C183.976 110.919 180.245 124.981 173.666 137.298H143.727H143.717Z" fill="#009E91"/>
</g>
<defs>
<clipPath id="clip0_13405_225452">
<rect width="192" height="192" fill="white"/>
</clipPath>
</defs>
</svg>
